<svg width="2880" height="390" viewBox="0 0 2880 390" fill="none" xmlns="http://www.w3.org/2000/svg">
<path d="M272.263 144.175C215.695 128.444 94.7192 35.8052 0 193H1271V76.8898C1236.2 73.7935 1221.66 93.1453 1196.55 110.175C1079.99 189.215 1080.68 64.5045 958.206 13.4158C835.732 -37.6728 766.633 70.8391 708.412 110.175C600.66 182.974 550.998 83.6143 488.134 110.175C379.712 155.983 333.5 161.205 272.263 144.175Z" transform="translate(418 4) scale(2)" fill="#31427D" fill-opacity="0.7"/>
<path d="M308.679 93.4763C244.545 83.277 107.388 23.2144 0 125.132H1441V49.8517C1401.54 47.8442 1385.06 60.391 1356.59 71.432C1224.44 122.678 1225.22 41.8217 1086.37 8.6982C947.514 -24.4253 869.172 45.9287 803.164 71.432C681 118.632 624.696 54.2116 553.424 71.432C430.5 101.132 378.106 104.517 308.679 93.4763Z" transform="translate(0 139.736) scale(2)" fill="#31427D"/>
<path d="M308.25 93.3776C244.206 83.1891 107.239 23.1899 0 125H1439V49.7991C1399.6 47.7937 1383.14 60.3272 1354.7 71.3566C1222.74 122.549 1223.52 41.7775 1084.86 8.68902C946.199 -24.3995 867.966 45.8802 802.049 71.3566C680.055 118.506 623.829 54.1544 552.656 71.3566C429.902 101.025 377.582 104.407 308.25 93.3776Z" transform="translate(2862 140) scale(-2 2)" fill="#31427D" fill-opacity="0.6"/>
<path d="M308.25 144.175C244.206 128.444 107.239 35.8052 0 193H1439V76.8898C1399.6 73.7935 1383.14 93.1453 1354.7 110.175C1222.74 189.215 1223.52 64.5045 1084.86 13.4158C946.199 -37.6728 867.966 70.8391 802.049 110.175C680.055 182.974 623.829 83.6143 552.656 110.175C429.902 155.983 377.582 161.205 308.25 144.175Z" transform="translate(1938) scale(-2 2)" fill="#31427D" fill-opacity="0.8"/>
</svg>
